<?xml version="1.0" encoding="UTF-8"?>
<svg width="46px" height="66px" viewBox="0 0 46 66" version="1.1" xmlns="http://www.w3.org/2000/svg" xmlns:xlink="http://www.w3.org/1999/xlink">
    <!-- Generator: sketchtool 51.2 (57519) - http://www.bohemiancoding.com/sketch -->
    <title>D221D2DD-A0AE-48DD-995A-7B21E52A7FB4@1x</title>
    <desc>Created with sketchtool.</desc>
    <defs></defs>
    <g id="Page-1" stroke="none" stroke-width="1" fill="none" fill-rule="evenodd">
        <g id="Desktop-VideoSharks-HD-Final-version" transform="translate(-1036.000000, -4597.000000)" fill="#136EF1" fill-rule="nonzero">
            <g id="board" transform="translate(1036.000000, 4597.000000)">
                <path d="M41.4,6.6 L37.4571429,16.5 L8.54285714,16.5 L4.6,6.6 C2.07,6.6 0,8.679 0,11.22 L0,61.38 C0,63.921 2.07,66 4.6,66 L41.4,66 C43.93,66 46,63.921 46,61.38 L46,11.22 C46,8.679 43.93,6.6 41.4,6.6 Z M34.8285714,13.2 L37.7857143,6.6 L30.6228571,6.6 L28.2571429,0 L17.7428571,0 L15.3764857,6.6 L8.21428571,6.6 L11.1714286,13.2 L34.8285714,13.2 Z" id="Shape"></path>
            </g>
        </g>
    </g>
</svg>