<?xml version="1.0" encoding="UTF-8"?>
<svg width="71px" height="51px" viewBox="0 0 71 51" version="1.1" xmlns="http://www.w3.org/2000/svg" xmlns:xlink="http://www.w3.org/1999/xlink">
    <!-- Generator: sketchtool 51.2 (57519) - http://www.bohemiancoding.com/sketch -->
    <title>C63274E6-3763-4960-88EF-1977F6E42C63@1x</title>
    <desc>Created with sketchtool.</desc>
    <defs></defs>
    <g id="Page-1" stroke="none" stroke-width="1" fill="none" fill-rule="evenodd">
        <g id="Desktop-VideoSharks-HD-Final-version" transform="translate(-851.000000, -4133.000000)" fill="#136EF1" fill-rule="nonzero">
            <g id="hand-shake" transform="translate(851.000000, 4133.000000)">
                <path d="M71,6.32423469 L71,27.6788227 C71,27.6788227 66.4001033,28.5792367 65.4524759,28.6976598 C64.5078568,28.8157983 61.5393405,29.7681648 59.3879469,27.7135525 C56.0701765,24.5541325 44.282207,12.9063954 44.282207,12.9063954 C44.282207,12.9063954 42.2497145,10.9248012 38.9862375,12.6373814 C35.9905028,14.2062027 31.5497617,16.5053473 29.6949046,17.4006373 C26.1884682,19.2549836 23.2822675,16.3129098 23.2822675,14.0718381 C23.2822675,12.3334952 24.3740088,11.1536766 25.9346215,10.2859997 C30.1640625,7.73847975 39.0784933,2.76684472 42.7913591,0.806743203 C45.0481879,-0.385885556 46.6742679,-0.488082411 49.7727159,2.10541187 C53.5887249,5.29415302 56.9847121,8.2007853 56.9847121,8.2007853 C56.9847121,8.2007853 58.0923547,9.11927598 59.8588239,8.74934613 C64.1965651,7.83811457 71,6.32423469 71,6.32423469 Z M24.0807672,42.5074725 C24.6516357,41.0502421 24.4608209,39.4203588 23.3663578,38.3021715 C22.3829168,37.3019803 20.9470786,37.038375 19.5779969,37.3500897 C19.9609158,36.0008919 19.7494724,34.5648695 18.760731,33.5514411 C17.7742816,32.5538119 16.3411652,32.2849402 14.9722268,32.5995016 C15.3522806,31.2522965 15.1414102,29.8164165 14.1520958,28.8059771 C12.6029434,27.2271923 9.92337104,27.2949439 8.16306177,28.9621191 C6.41206403,30.6315716 5.29038259,33.6562 6.85314413,35.4365318 C8.41332709,37.2078965 10.2060118,36.1301325 11.5726582,35.8206952 C11.1924612,37.1679003 10.0533027,38.4210216 11.4561924,40.1844155 C12.8577928,41.9486635 14.8089169,40.8783009 16.1769958,40.5717103 C15.7955095,41.9137913 14.7060603,43.2927372 16.0550863,44.9277445 C17.416289,46.5677336 19.6457562,45.6939362 21.1182676,45.2394591 C20.5499776,46.6911384 19.333605,48.2559744 20.8963666,50.0095472 C22.4566928,51.7757878 26.0625477,50.95864 27.8238597,49.2889028 C29.5804444,47.6194502 29.7490547,44.9735765 28.2040567,43.3898099 C27.1373849,42.3032211 25.5472618,42.0504333 24.0807672,42.5074725 Z M56.2190177,31.397621 C43.4865724,18.7467037 49.4753199,24.6995993 42.6233218,17.8768917 C42.6233218,17.8768917 40.5640407,15.839929 37.8499441,17.0231637 C35.9446615,17.8526947 33.4917175,18.9832652 31.6460286,19.8463874 C29.6178338,20.9030858 28.1582153,21.2301726 27.4728866,21.2256179 C23.5520154,21.2001399 20.3709097,18.0689022 20.3709097,14.177024 C20.3709097,11.6522777 21.7199358,9.4541913 23.7319429,8.20647872 C26.561216,6.26118009 33.0735581,2.81950884 33.0735581,2.81950884 C33.0735581,2.81950884 31.0896288,0.32166398 26.7435788,0.32166398 C22.3988181,0.32166398 13.3213639,6.23029329 13.3213639,6.23029329 C13.3213639,6.23029329 10.7462239,7.8691437 7.0753316,6.39298272 L0,3.94495526 L0,28.3806788 C0,28.3806788 2.02031589,28.9616921 3.83563482,29.6984204 C4.24562873,28.5366784 4.90717724,27.4638961 5.82486451,26.5778579 C8.8365004,23.7277328 13.828341,23.6981271 16.5683666,26.5014238 C17.3937981,27.3535862 17.9698238,28.370146 18.2637817,29.4938844 C19.3678428,29.8325004 20.3679013,30.432302 21.1715582,31.2550009 C21.999425,32.1014698 22.5733018,33.1237231 22.869695,34.2417681 C23.9724669,34.5806688 24.9710929,35.1827477 25.7774715,36.006016 C26.6855608,36.9364628 27.2905238,38.0603436 27.5730214,39.2780234 C28.725789,39.6116577 29.7675345,40.2323826 30.6065752,41.0846873 C32.2532838,42.765242 32.8377614,45.0453136 32.4836367,47.244681 C32.4865018,47.244681 32.4919455,47.244681 32.4945241,47.2496627 C32.5214559,47.2846773 33.5147814,48.3849303 34.1342132,49.0055129 C35.3481504,50.2128022 37.3303606,50.2128022 38.5480225,49.0055129 C39.7576621,47.7986506 39.7629625,45.832998 38.5480225,44.6200152 C38.5044732,44.5768876 34.168451,40.0705472 34.5174185,39.7211136 C34.8638075,39.3740998 40.3881244,45.0854522 40.490981,45.1899264 C41.7033425,46.394796 43.6842634,46.394796 44.9020685,45.1899264 C46.1170085,43.9830641 46.1144299,42.0174115 44.9020685,40.8072755 C44.8424747,40.7509106 44.5937852,40.5142068 44.5015294,40.4199807 C44.5015294,40.4199807 39.0243431,35.5720352 39.4412133,35.157839 C39.8632405,34.7410808 46.6666754,41.0493881 46.677706,41.0493881 C47.9006683,42.143663 49.7844628,42.1355499 50.9610106,40.9659795 C52.105756,39.8287192 52.1302525,38.0297415 51.1154388,36.8174704 C51.0939506,36.7529924 45.9304914,31.3915006 46.3334658,30.9881219 C46.7423137,30.5794769 51.8514796,35.806604 51.8622236,35.8174215 C53.0718632,37.0220064 55.055506,37.0220064 56.2733111,35.8174215 C57.4856725,34.6126942 57.4856725,32.6446219 56.2733111,31.4292195 C56.2568369,31.4189714 56.2352055,31.4081539 56.2190177,31.397621 Z" id="Shape"></path>
            </g>
        </g>
    </g>
</svg>