<?xml version="1.0" encoding="UTF-8"?>
<svg width="63px" height="63px" viewBox="0 0 63 63" version="1.1" xmlns="http://www.w3.org/2000/svg" xmlns:xlink="http://www.w3.org/1999/xlink">
    <!-- Generator: sketchtool 51.2 (57519) - http://www.bohemiancoding.com/sketch -->
    <title>53DC713A-56A6-47A1-ACB9-9A2254225981@1x</title>
    <desc>Created with sketchtool.</desc>
    <defs></defs>
    <g id="Page-1" stroke="none" stroke-width="1" fill="none" fill-rule="evenodd">
        <g id="Desktop-VideoSharks-HD-Final-version" transform="translate(-526.000000, -4779.000000)" fill-rule="nonzero">
            <g id="art" transform="translate(526.000000, 4779.000000)">
                <path d="M1.54040545,2.54046477 C3.59230783,0.486511743 6.92054968,0.486511743 8.97245205,2.54046477 L48,41.5676672 L40.5659818,49 L1.54040545,9.97279757 C-0.513468485,7.92081618 -0.513468485,4.59244617 1.54040545,2.54046477 Z" id="Shape" fill="#1689FC"></path>
                <path d="M39,49.8990126 C39,61.1110637 55.5551327,62 61.0311145,62 C66.504995,62 58.8280154,55.3671679 58.8280154,49.8990126 C58.8280154,44.4307338 54.3889388,40 48.9129571,40 C43.4369753,40 39,44.4307338 39,49.8990126 Z" id="Shape" fill="#CAE8F9"></path>
                <path d="M61.0317476,62 C55.5556085,62 39,61.1294047 39,50.1486854 C39,48.6644908 39.341772,47.25754 39.9501632,46 C39.9521409,46 40.7862376,59.9001511 62.9221855,60.2287096 C63.1942435,61.3239045 62.7966013,62 61.0317476,62 Z" id="Shape" fill="#17ACE8"></path>
                <path d="M60.6928953,2.30570317 C57.6167558,-0.768567724 52.631475,-0.768567724 49.5552124,2.30570317 L0,51.8623986 L0,63 L11.1357138,63 L60.6928953,13.4431815 C63.7690349,10.3670645 63.7690349,5.38182018 60.6928953,2.30570317 Z" id="Shape" fill="#136EF1"></path>
                <path d="M58.9192813,15 L60.7381359,13.1808601 C63.7539547,10.1647684 63.7539547,5.2768029 60.7381359,2.2607112 C57.7223172,-0.753570401 52.834794,-0.753570401 49.8188546,2.2607112 L48,4.08166118 L58.9192813,15 Z" id="Shape" fill="#17ACE8"></path>
                <polygon id="Shape" fill="#FFE5AB" points="0 52 0 63 11 63"></polygon>
                <polygon id="Shape" fill="#F8F9FC" points="51.3999244 23 40 11.6007559 47.5998236 4 59 15.4011339"></polygon>
                <polygon id="Shape" fill="#17ACE8" points="0 59 0 63 4 63"></polygon>
            </g>
        </g>
    </g>
</svg>