<?xml version="1.0" encoding="UTF-8"?>
<svg width="70px" height="79px" viewBox="0 0 70 79" version="1.1" xmlns="http://www.w3.org/2000/svg" xmlns:xlink="http://www.w3.org/1999/xlink">
    <!-- Generator: sketchtool 51.2 (57519) - http://www.bohemiancoding.com/sketch -->
    <title>59E34AEF-36D6-4B42-997B-8120A63904AE@1x</title>
    <desc>Created with sketchtool.</desc>
    <defs></defs>
    <g id="Page-1" stroke="none" stroke-width="1" fill="none" fill-rule="evenodd">
        <g id="Desktop-VideoSharks-HD-Final-version" transform="translate(-523.000000, -4114.000000)" fill-rule="nonzero">
            <g id="quality" transform="translate(523.000000, 4114.000000)">
                <g id="Group" transform="translate(0.000000, 34.885333)" fill="#136EF1">
                    <polygon id="Shape" points="50.9387601 2.31539819 46.7522114 7.12679561 34.5213521 38.7319808 34.7309728 44.1469254 69.4619456 2.31539819 67.0022209 0 54.2670678 0"></polygon>
                    <polygon id="Shape" points="0 2.31539819 34.7309728 44.1469254 35.1830929 39.3557491 22.4519531 6.46397429 18.5231855 2.31539819 15.4852287 0 3.18506174 0"></polygon>
                </g>
                <g id="Group" transform="translate(0.000000, 18.677545)" fill="#1689FC">
                    <polygon id="Shape" points="60.2003528 0 56.4958701 2.7781691 50.0995054 15.5708984 50.9387601 18.5231855 69.4619456 18.5231855"></polygon>
                    <polygon id="Shape" points="9.26159274 0 13.3144657 3.47479524 19.8648816 16.5759356 18.5231855 18.5231855 0 18.5231855"></polygon>
                </g>
                <polygon id="Shape" fill="#17ACE8" points="50.9387601 37.2007308 34.7309728 79.0322581 18.5231855 37.2007308 22.5982863 34.8853327 46.5858115 34.8853327"></polygon>
                <polygon id="Shape" fill="#1689FC" points="50.9387601 37.2007308 34.7309728 79.0322581 34.7309728 34.8853327 46.5858115 34.8853327"></polygon>
                <g id="Group" transform="translate(17.597026, 0.000000)" fill="#1E88F5">
                    <path d="M19.4493448,2.31539819 L19.4493448,7.10055444 C19.4493448,8.39702306 18.4307239,9.41595262 17.1339466,9.41595262 C15.8371692,9.41595262 14.8185484,8.39702306 14.8185484,7.10055444 L14.8185484,2.31539819 C14.8185484,1.01862084 15.8371692,0 17.1339466,0 C18.4307239,0 19.4493448,1.01862084 19.4493448,2.31539819 Z" id="Shape"></path>
                    <path d="M5.67226247,14.1620558 C5.07982926,14.1620558 4.48739604,13.9359186 4.03527596,13.4836442 L0.761148564,10.2095168 C-0.143245968,9.30512223 -0.143245968,7.8397839 0.761148564,6.93538936 C1.66554309,6.03099483 3.13088143,6.03099483 4.03527596,6.93538936 L7.30940335,10.2095168 C8.21379788,11.1139113 8.21379788,12.5792496 7.30940335,13.4836442 C6.85712891,13.9359186 6.26469569,14.1620558 5.67226247,14.1620558 Z" id="Shape"></path>
                </g>
                <path d="M46.1926569,14.1620558 C45.6002237,14.1620558 45.0077904,13.9359186 44.5556704,13.4836442 C43.6512758,12.5792496 43.6512758,11.1139113 44.5556704,10.2095168 L47.8297978,6.93538936 C48.7341923,6.03099483 50.1995306,6.03099483 51.1039252,6.93538936 C52.0083197,7.8397839 52.0083197,9.30512223 51.1039252,10.2095168 L47.8297978,13.4836442 C47.3775233,13.9359186 46.7850901,14.1620558 46.1926569,14.1620558 Z" id="Shape" fill="#1E88F5"></path>
                <g id="Group" transform="translate(9.261593, 18.677545)" fill="#17ACE8">
                    <polygon id="Shape" points="25.46938 0 25.8416961 3.07160723 37.8076739 16.7471207 41.6771673 18.5231855 50.9387601 0"></polygon>
                    <polygon id="Shape" points="25.46938 0 25.8214749 2.2437752 13.7286133 16.0642326 9.26159274 18.5231855 0 0"></polygon>
                </g>
                <polygon id="Shape" fill="#CAE8F9" points="50.9387601 37.2007308 18.5231855 37.2007308 34.7309728 18.6775454"></polygon>
                <polygon id="Shape" fill="#B7E0F6" points="50.9387601 37.2007308 34.7309728 37.2007308 34.7309728 18.6775454"></polygon>
            </g>
        </g>
    </g>
</svg>