<?xml version="1.0" encoding="UTF-8"?>
<svg width="63px" height="63px" viewBox="0 0 63 63" version="1.1" xmlns="http://www.w3.org/2000/svg" xmlns:xlink="http://www.w3.org/1999/xlink">
    <!-- Generator: sketchtool 51.2 (57519) - http://www.bohemiancoding.com/sketch -->
    <title>FCFC9D5F-5382-461E-BB51-29A12DF59AEB@1x</title>
    <desc>Created with sketchtool.</desc>
    <defs></defs>
    <g id="Page-1" stroke="none" stroke-width="1" fill="none" fill-rule="evenodd">
        <g id="Desktop-VideoSharks-HD-Final-version" transform="translate(-1028.000000, -4343.000000)" fill-rule="nonzero">
            <g id="Group-5" transform="translate(1028.000000, 4343.000000)">
                <g id="art-copy">
                    <path d="M60.6928953,2.30570317 C57.6167558,-0.768567724 52.631475,-0.768567724 49.5552124,2.30570317 L0,51.8623986 L0,63 L11.1357138,63 L60.6928953,13.4431815 C63.7690349,10.3670645 63.7690349,5.38182018 60.6928953,2.30570317 Z" id="Shape" fill="#136EF1"></path>
                    <path d="M58.9192813,15 L60.7381359,13.1808601 C63.7539547,10.1647684 63.7539547,5.2768029 60.7381359,2.2607112 C57.7223172,-0.753570401 52.834794,-0.753570401 49.8188546,2.2607112 L48,4.08166118 L58.9192813,15 Z" id="Shape" fill="#17ACE8"></path>
                    <polygon id="Shape" fill="#FFE5AB" points="0 52 0 63 11 63"></polygon>
                    <polygon id="Shape" fill="#F8F9FC" points="51.3999244 23 40 11.6007559 47.5998236 4 59 15.4011339"></polygon>
                    <polygon id="Shape" fill="#17ACE8" points="0 59 0 63 4 63"></polygon>
                </g>
                <g id="art-copy" transform="translate(31.500000, 31.500000) scale(-1, 1) translate(-31.500000, -31.500000) ">
                    <path d="M60.6928953,2.30570317 C57.6167558,-0.768567724 52.631475,-0.768567724 49.5552124,2.30570317 L0,51.8623986 L0,63 L11.1357138,63 L60.6928953,13.4431815 C63.7690349,10.3670645 63.7690349,5.38182018 60.6928953,2.30570317 Z" id="Shape" fill="#136EF1"></path>
                    <path d="M58.9192813,15 L60.7381359,13.1808601 C63.7539547,10.1647684 63.7539547,5.2768029 60.7381359,2.2607112 C57.7223172,-0.753570401 52.834794,-0.753570401 49.8188546,2.2607112 L48,4.08166118 L58.9192813,15 Z" id="Shape" fill="#17ACE8"></path>
                    <polygon id="Shape" fill="#FFE5AB" points="0 52 0 63 11 63"></polygon>
                    <polygon id="Shape" fill="#F8F9FC" points="51.3999244 23 40 11.6007559 47.5998236 4 59 15.4011339"></polygon>
                    <polygon id="Shape" fill="#17ACE8" points="0 59 0 63 4 63"></polygon>
                </g>
            </g>
        </g>
    </g>
</svg>