<?xml version="1.0" encoding="UTF-8"?>
<svg width="69px" height="69px" viewBox="0 0 69 69" version="1.1" xmlns="http://www.w3.org/2000/svg" xmlns:xlink="http://www.w3.org/1999/xlink">
    <!-- Generator: sketchtool 51.2 (57519) - http://www.bohemiancoding.com/sketch -->
    <title>7443FDA7-14D7-424D-9D6E-EA3B5F9A2BDA@1x</title>
    <desc>Created with sketchtool.</desc>
    <defs></defs>
    <g id="Page-1" stroke="none" stroke-width="1" fill="none" fill-rule="evenodd">
        <g id="Desktop-VideoSharks-HD-Final-version" transform="translate(-346.000000, -4337.000000)" fill-rule="nonzero">
            <g id="compact-disc" transform="translate(346.000000, 4337.000000)">
                <path d="M58.8949786,10.1050214 C45.4216168,-3.36834046 23.5783832,-3.36834046 10.1050214,10.1050214 C-3.36834046,23.5783832 -3.36834046,45.4216168 10.1050214,58.8949786 C23.5783832,72.3683405 45.4216168,72.3683405 58.8949786,58.8949786 C72.3683405,45.4216168 72.3683405,23.5783832 58.8949786,10.1050214 Z M40.5990527,40.5990527 C37.2304042,43.9677012 31.7695958,43.9677012 28.4021794,40.5990527 C25.033531,37.2304042 25.033531,31.7695958 28.4021794,28.4021794 C31.7708279,25.0347631 37.2316363,25.033531 40.5990527,28.4021794 C43.966469,31.7708279 43.966469,37.2304042 40.5990527,40.5990527 Z" id="Shape" fill="#136EF1"></path>
                <path d="M44.0457273,24.9542727 C38.7733636,19.6819091 30.2254091,19.6819091 24.9542727,24.9542727 C19.6819091,30.2266364 19.6819091,38.7745909 24.9542727,44.0457273 C30.2266364,49.3180909 38.7745909,49.3180909 44.0457273,44.0457273 C49.3180909,38.7733636 49.3180909,30.2266364 44.0457273,24.9542727 Z M37.1030455,37.1030455 C35.6646818,38.5414091 33.3340909,38.5414091 31.8957273,37.1030455 C30.4573636,35.6646818 30.4573636,33.3340909 31.8957273,31.8957273 C33.3340909,30.4573636 35.6646818,30.4573636 37.1030455,31.8957273 C38.5414091,33.3340909 38.5414091,35.6659091 37.1030455,37.1030455 Z" id="Shape" fill="#F8F9FC"></path>
                <path d="M43.98916,43.98916 C43.06196,44.91636 42.02862,45.67032 40.93428,46.27056 L50.88582,64.47296 C53.6723,62.94796 56.2953,61.01426 58.65478,58.65478 C61.01426,56.2953 62.94796,53.6723 64.47296,50.88582 L46.27056,40.93428 C45.67154,42.02984 44.91636,43.06196 43.98916,43.98916 Z" id="Shape" fill="#17ACE8"></path>
                <path d="M24.9424401,24.9424401 C25.8904004,23.9944797 26.9468773,23.2236383 28.06572,22.6099587 L17.8913612,4 C15.0424909,5.55914533 12.3607609,7.53614161 9.94845126,9.94845126 C7.53614161,12.3607609 5.55914533,15.0424909 4,17.8913612 L22.6099587,28.06572 C23.2223909,26.94563 23.9944797,25.8904004 24.9424401,24.9424401 Z" id="Shape" fill="#CAE8F9"></path>
            </g>
        </g>
    </g>
</svg>