<?xml version="1.0" encoding="UTF-8"?>
<svg width="65px" height="65px" viewBox="0 0 65 65" version="1.1" xmlns="http://www.w3.org/2000/svg" xmlns:xlink="http://www.w3.org/1999/xlink">
    <!-- Generator: sketchtool 51.2 (57519) - http://www.bohemiancoding.com/sketch -->
    <title>7AC83DBE-D430-4693-8107-F085A903A94F@1x</title>
    <desc>Created with sketchtool.</desc>
    <defs></defs>
    <g id="Page-1" stroke="none" stroke-width="1" fill="none" fill-rule="evenodd">
        <g id="Desktop-VideoSharks-HD-Final-version" transform="translate(-851.000000, -4778.000000)" fill-rule="nonzero">
            <g id="karaoke-microphone-icon" transform="translate(851.000000, 4778.000000)">
                <path d="M59.7986458,4.52427083 C56.7829167,1.50989583 52.8301042,0 48.8759375,0 C44.923125,0 40.9703125,1.50854167 37.9559375,4.52427083 C31.9244792,10.5557292 31.9244792,20.336875 37.9559375,26.3683333 C40.9716667,29.3840625 44.9244792,30.8926042 48.8759375,30.8926042 C52.8273958,30.8926042 56.7829167,29.3840625 59.7986458,26.3683333 C65.8301042,20.3382292 65.8301042,10.5570833 59.7986458,4.52427083 Z" id="Shape" fill="#17ACE8"></path>
                <path d="M30.0096875,20.3111458 L0.874791667,53.0305208 C-0.343958333,54.3995833 -0.281666667,56.5567708 1.01427083,57.8540625 L2.5471875,59.3883333 L1.568125,60.36875 C0.9221875,61.0146875 0.9221875,62.0695833 1.568125,62.7128125 L1.714375,62.8590625 C2.3603125,63.5063542 3.41520833,63.5063542 4.06114583,62.8590625 L5.04020833,61.8786458 L6.46885417,63.3072917 C7.76479167,64.6032292 9.9246875,64.6655208 11.29375,63.448125 L44.0036458,34.3213542 C40.6602083,33.4641667 37.58625,31.7457292 35.0810417,29.2405208 C32.5257292,26.6852083 30.8465625,23.5841667 30.0096875,20.3111458 Z M28.4645833,39.63375 L21.4973958,46.6022917 C20.4546875,47.6463542 18.7646875,47.6463542 17.7233333,46.6022917 C16.6819792,45.5582292 16.680625,43.866875 17.7233333,42.8282292 L24.6905208,35.8596875 C25.7332292,34.815625 27.4232292,34.815625 28.4645833,35.8596875 C29.5059375,36.9023958 29.5072917,38.5923958 28.4645833,39.63375 Z" id="Shape" fill="#136EF1"></path>
            </g>
        </g>
    </g>
</svg>